<?xml version="1.0" encoding="iso-8859-1"?>
<!-- Uploaded to: SVG Repo, www.svgrepo.com, Generator: SVG Repo Mixer Tools -->
<svg fill="#111" height="800px" width="800px" version="1.1" id="Layer_1" xmlns="http://www.w3.org/2000/svg" xmlns:xlink="http://www.w3.org/1999/xlink" 
	 viewBox="0 0 512 512" xml:space="preserve">
<path d="M300.491,71.06c3.182-6.53,4.973-13.857,4.973-21.596C305.463,22.189,283.274,0,255.999,0s-49.464,22.189-49.464,49.464
	c0,7.739,1.791,15.066,4.973,21.596C144.416,90.406,95.202,152.358,95.202,225.593c0,5.414,0,263.437,0,269.34
	c0,9.425,7.641,17.067,17.067,17.067h287.463c9.425,0,17.067-7.641,17.067-17.067c0-5.904,0-263.927,0-269.34
	C416.798,152.358,367.582,90.406,300.491,71.06z M382.665,225.593v192.401h-61.688c0-313.404,0.631-292.214-1.476-301.962
	C357.239,137.989,382.665,178.876,382.665,225.593z M225.155,417.992V129.772c0-17.007,13.837-30.844,30.844-30.844
	s30.844,13.837,30.844,30.844v288.221H225.155z M240.669,49.464c0-8.454,6.877-15.33,15.33-15.33c8.454,0,15.33,6.877,15.33,15.33
	s-6.877,15.33-15.33,15.33C247.546,64.794,240.669,57.917,240.669,49.464z M129.334,225.593c0-46.717,25.426-87.604,63.164-109.561
	c-2.107,9.747-1.476-11.862-1.476,301.962h-61.688C129.334,417.993,129.334,225.593,129.334,225.593z M382.665,477.867H129.334
	v-25.741h253.33v25.741H382.665z"/>
</svg>